<svg xmlns="http://www.w3.org/2000/svg" xmlns:xlink="http://www.w3.org/1999/xlink" width="300" zoomAndPan="magnify" viewBox="0 0 224.87999 225" height="300" preserveAspectRatio="xMidYMid meet" version="1.0"><path fill="#ffffff" d="M 8.257812 171.121094 L 49.265625 37.75 L 88.582031 37.75 L 129.542969 171.121094 L 94.878906 171.121094 L 78.714844 104.949219 C 77.195312 98.382812 75.5 91.347656 73.625 83.839844 C 71.75 76.332031 70.011719 69.164062 68.410156 62.335938 L 67.582031 62.335938 C 66.21875 69.171875 64.683594 76.339844 62.980469 83.839844 C 61.273438 91.339844 59.578125 98.375 57.890625 104.949219 L 41.722656 171.121094 Z M 36.546875 140.960938 L 36.546875 115.765625 L 100.847656 115.765625 L 100.847656 140.960938 Z M 36.546875 140.960938 " fill-opacity="1" fill-rule="nonzero"/><path fill="#ffffff" d="M 138.992188 152.464844 L 209.359375 152.464844 L 209.359375 168.574219 L 138.992188 168.574219 Z M 138.992188 152.464844 " fill-opacity="1" fill-rule="nonzero"/></svg>